# xmcd CD database file
#
# Track frame offsets:
#	150
#	12623
#	26992
#	40845
#	54046
#	68244
#	79707
#	90030
#	104676
#	118617
#	133619
#	146011
#	159996
#	184435
#	210025
#	254903
#	283181
#	300132
#	314679
#	328451
#
# Disc length: 4716 seconds
#
# Revision: 0
# Processed by: cddbd v1.5.1PL2 Copyright (c) Steve Scherf et al.
# Submitted via: CDex 1.51
#
DISCID=20126a14
DTITLE=Miles Davis - Out Of The Blue II
DYEAR=1900
DGENRE=Jazz
TTITLE0=Half Nelson
TTITLE1=Billie's Bounce
TTITLE2=Parker's Mood
TTITLE3=Ah Leu Cha
TTITLE4=Godchild
TTITLE5=Move
TTITLE6=Israel
TTITLE7=Rouge
TTITLE8=Rocker
TTITLE9=Moon Dreams
TTITLE10=Au Privave
TTITLE11=Hibeck
TTITLE12=It's Only a Paper Moon
TTITLE13=Denial
TTITLE14=Bluing
TTITLE15=Out Of The Blue
TTITLE16=Yesterdays
TTITLE17=Donna
TTITLE18=Chance It
TTITLE19=You Go To My Head
EXTD=
EXTT0=
EXTT1=
EXTT2=
EXTT3=
EXTT4=
EXTT5=
EXTT6=
EXTT7=
EXTT8=
EXTT9=
EXTT10=
EXTT11=
EXTT12=
EXTT13=
EXTT14=
EXTT15=
EXTT16=
EXTT17=
EXTT18=
EXTT19=
PLAYORDER=
